<?xml version="1.0" standalone="no"?><!DOCTYPE svg PUBLIC "-//W3C//DTD SVG 1.1//EN" "http://www.w3.org/Graphics/SVG/1.1/DTD/svg11.dtd"><svg t="1568707377081" class="icon" viewBox="0 0 1024 1024" version="1.1" xmlns="http://www.w3.org/2000/svg" p-id="2742" xmlns:xlink="http://www.w3.org/1999/xlink" width="128" height="128"><defs><style type="text/css"></style></defs><path d="M229.070573 1024C152.713715 1024 91.355526 958.551265 91.355526 876.740346v-10.908122L89.992011 145.896138l1.363515-4.090545C92.719041 62.721704 154.07723 0 229.070573 0c35.451398 0 68.175766 10.908123 98.173102 32.724368L867.195739 389.965379c40.905459 25.906791 66.81225 73.629827 66.81225 125.443409 0 55.904128-28.633822 104.990679-74.993342 130.89747L301.336884 1002.183755c-20.45273 14.998668-46.359521 21.816245-72.266311 21.816245zM212.708389 156.804261l1.363515 714.482024v6.817577c0 13.635153 8.181092 24.543276 14.998669 24.543275 1.363515 0 2.727031 0 4.090546-1.363515l1.363515-1.363515L799.019973 538.588549c5.454061-2.727031 12.271638-10.908123 12.271638-23.179761 0-10.908123-5.454061-19.089214-9.544607-21.816245l-545.406125-359.968042c-10.908123-8.181092-19.089214-9.544607-27.270306-9.544608-6.817577 0-14.998668 10.908123-14.998669 24.543276 0 0 0 2.727031-1.363515 8.181092z m-121.352863-9.544607z" fill="#fc6760" p-id="2743"></path></svg>