<?xml version="1.0" encoding="utf-8"?>
<!-- Generator: Adobe Illustrator 23.0.0, SVG Export Plug-In . SVG Version: 6.00 Build 0)  -->
<svg version="1.1" id="图层_1" xmlns="http://www.w3.org/2000/svg" xmlns:xlink="http://www.w3.org/1999/xlink" x="0px" y="0px"
	 viewBox="0 0 193.5 268" style="enable-background:new 0 0 193.5 268;" xml:space="preserve">
<style type="text/css">
	.st0{fill:#EC7063;}
</style>
<path class="st0" d="M172.91,210.18H20.59C9.22,210.18,0,200.96,0,189.59V20.59C0,9.22,9.22,0,20.59,0h152.33
	c11.37,0,20.59,9.22,20.59,20.59v169.01C193.5,200.96,184.28,210.18,172.91,210.18z"/>
<path class="st0" d="M-88.15,69.09"/>
<path class="st0" d="M43.05,218.81c-1.2-5.16-5.9-8.78-11.12-8.63c-4.99,0.14-9.34,3.69-10.48,8.63c0-2.88,0-5.75,0-8.63h21.6
	V218.81z"/>
<path class="st0" d="M0,245.42c1.19,5.16,5.87,8.78,11.06,8.64c4.97-0.14,9.3-3.69,10.44-8.62C14.33,245.43,7.17,245.42,0,245.42
	c7.17,0.01,14.33,0.01,21.5,0.02C14.33,245.43,7.17,245.42,0,245.42z"/>
<rect y="190.47" class="st0" width="21.5" height="55"/>
<path class="st0" d="M86.05,218.81c-1.2-5.16-5.9-8.78-11.12-8.63c-4.99,0.14-9.34,3.69-10.48,8.63c0-2.88,0-5.75,0-8.63h21.6
	V218.81z"/>
<path class="st0" d="M43,245.42c1.19,5.16,5.87,8.78,11.06,8.64c4.97-0.14,9.3-3.69,10.44-8.62C57.33,245.43,50.17,245.42,43,245.42
	c7.17,0.01,14.33,0.01,21.5,0.02C57.33,245.43,50.17,245.42,43,245.42z"/>
<rect x="43" y="210.17" class="st0" width="21.5" height="35.3"/>
<path class="st0" d="M129.05,218.81c-1.2-5.16-5.9-8.78-11.12-8.63c-4.99,0.14-9.34,3.69-10.48,8.63c0-2.88,0-5.75,0-8.63h21.6
	V218.81z"/>
<path class="st0" d="M86,245.42c1.19,5.16,5.87,8.78,11.06,8.64c4.97-0.14,9.3-3.69,10.44-8.62
	C100.33,245.43,93.17,245.42,86,245.42c7.17,0.01,14.33,0.01,21.5,0.02C100.33,245.43,93.17,245.42,86,245.42z"/>
<rect x="86" y="210.17" class="st0" width="21.5" height="35.3"/>
<path class="st0" d="M172.05,218.81c-1.2-5.16-5.9-8.78-11.12-8.63c-4.99,0.14-9.34,3.69-10.48,8.63c0-2.88,0-5.75,0-8.63h21.6
	V218.81z"/>
<path class="st0" d="M129,245.42c1.19,5.16,5.87,8.78,11.06,8.64c4.97-0.14,9.3-3.69,10.44-8.62
	C143.33,245.43,136.17,245.42,129,245.42c7.17,0.01,14.33,0.01,21.5,0.02C143.33,245.43,136.17,245.42,129,245.42z"/>
<rect x="129" y="210.17" class="st0" width="21.5" height="35.3"/>
<path class="st0" d="M172,245.42c1.19,5.16,5.87,8.78,11.06,8.64c4.97-0.14,9.3-3.69,10.44-8.62
	C186.33,245.43,179.17,245.42,172,245.42c7.17,0.01,14.33,0.01,21.5,0.02C186.33,245.43,179.17,245.42,172,245.42z"/>
<rect x="172" y="192.82" class="st0" width="21.5" height="52.65"/>
</svg>
