<svg xmlns="http://www.w3.org/2000/svg" viewBox="0 0 157.61 106.44"><defs><style>.cls-1{fill:#fff;}.cls-2{fill:#ea6153;}</style></defs><title>资源 1logo</title><g id="图层_2" data-name="图层 2"><g id="图层_1-2" data-name="图层 1"><path class="cls-1" d="M7.52,92c4.61,0,7.31,2.66,7.31,7s-2.89,7.11-7.65,7.11H1.32v-.65l1.7-.17c.06-1.9.06-3.87.06-6v-.63c0-2,0-4-.06-5.89l-1.7-.15V92Zm-.38,13.41c2.8,0,4.4-2.36,4.4-6.37s-1.62-6.33-4.32-6.33H6.31c0,2,0,3.93,0,6v.63c0,2.11,0,4.11,0,6.1Z"/><path class="cls-1" d="M21,92.75c0,1.93,0,3.89,0,5.85v.82c0,1.94,0,3.89,0,5.83l1.68.17v.65H16v-.65l1.7-.17c.05-1.9.05-3.85.05-5.81V98.6c0-2,0-3.91-.05-5.85L16,92.6V92h6.66v.64Z"/><path class="cls-1" d="M37.43,92.52l-1.58.29L31.39,106.1H29.67l-4.8-13.37-1.3-.13V92h6.67v.58l-2,.23L31.73,103l3-10.21-2-.28V92h4.64Z"/><path class="cls-1" d="M49.48,106.07H38.28v-.65l1.7-.17c.06-1.9.06-3.85.06-5.81V98.6c0-2,0-3.91-.06-5.85l-1.7-.15V92H49.09l0,3.76H48l-.87-3H43.27c0,1.89,0,3.84,0,5.84H45.8l.28-2.1h1v4.78h-1l-.26-2H43.23v.06c0,2.09,0,4.1,0,6.06h4.25l.87-3.17h1.06Z"/><path class="cls-1" d="M66.6,95.72H65.52l-.87-3h-4c0,1.89,0,3.84,0,5.84h2.58l.29-2.1h.94v4.88H63.5l-.27-2.1h-2.6v.06c0,2.06,0,4,0,6l2,.2v.65h-7v-.65l1.7-.17c0-1.9,0-3.85,0-5.81V98.6c0-2,0-3.91,0-5.85l-1.7-.15V92H66.63Z"/><path class="cls-1" d="M81.33,99c0,4.91-3.12,7.44-6.69,7.44s-6.71-2.51-6.71-7.44,3.18-7.42,6.71-7.42S81.33,94.11,81.33,99Zm-6.69,6.73C77,105.73,78,102.89,78,99s-1-6.7-3.36-6.7-3.36,2.85-3.36,6.7S72.32,105.73,74.64,105.73Z"/><path class="cls-1" d="M96.31,105.42v.65a8.25,8.25,0,0,1-2.25.28c-1.74,0-2.7-.51-2.89-2l-.55-2.61c-.27-1.55-.72-2.3-2.17-2.3h-.93c0,2,0,3.93.06,5.85l1.74.17v.65H82.65v-.65l1.7-.17c.05-1.9.05-3.85.05-5.81V98.6c0-2,0-3.91-.05-5.85l-1.7-.15V92h6.8c3.32,0,5.14,1.3,5.14,3.55,0,1.55-1.06,3-4,3.45,2.48.34,3.12,1.38,3.44,3.25l.62,3.12ZM88.64,98.7c2.11,0,2.92-1.42,2.92-3.14a2.6,2.6,0,0,0-2.91-2.89H87.58c-.06,1.91-.06,3.86-.06,6Z"/><path class="cls-1" d="M112.77,106.07H101.86v-.65l1.69-.17c0-1.88,0-3.79,0-5.3V98.6c0-2,0-3.91,0-5.85l-1.7-.15V92h6.83v.64l-1.85.17c0,1.91,0,3.83,0,5.53v1.23c0,1.87,0,3.84,0,5.8h3.93l1-3.49h1Z"/><path class="cls-1" d="M127.39,99c0,4.91-3.11,7.44-6.68,7.44S114,103.93,114,99s3.17-7.42,6.71-7.42S127.39,94.11,127.39,99Zm-6.68,6.73c2.3,0,3.36-2.84,3.36-6.73s-1.06-6.7-3.36-6.7-3.37,2.85-3.37,6.7S118.38,105.73,120.71,105.73Z"/><path class="cls-1" d="M141.58,92.52l-1.59.29-4.46,13.29h-1.72L129,92.73l-1.3-.13V92h6.67v.58l-2,.23L135.87,103l3-10.21-2-.28V92h4.65Z"/><path class="cls-1" d="M153.63,106.07H142.42v-.65l1.7-.17c.06-1.9.06-3.85.06-5.81V98.6c0-2,0-3.91-.06-5.85l-1.7-.15V92h10.81l0,3.76h-1.1l-.86-3h-3.84c0,1.89,0,3.84,0,5.84h2.57l.29-2.1h.94v4.78h-.94l-.27-2h-2.59v.06c0,2.09,0,4.1,0,6.06h4.25l.87-3.17h1.06Z"/><path class="cls-1" d="M.63,18.66c22.24,2.77,12.82,19.62,4,12.74A24.92,24.92,0,0,0,0,19.05ZM23,16.36c-2.38,9-6.33,25.72-7.2,30A35.72,35.72,0,0,0,14.8,54c.24,4.59,3.95,7,3.72,14.4a7.3,7.3,0,0,1-7.68,7.2A5.13,5.13,0,0,1,5.7,71.52C7.36,63.13,7,55.06,5.22,53.79A8.39,8.39,0,0,0,1,52.45V51H4.59c1.27,0,1.58,0,2.53-1.58,1.74-3,1.74-3,14.72-33.39ZM5.54,1.48c23.74,1.19,15.67,19.23,6,13.06C10.52,10,7.52,5.12,5,1.88ZM62,22.85c3.09,4.51,8.62,7.76,14.24,9.1l-.08.87c-3.48,1-5.69,4.12-6.72,9.18-4.59-3.88-7.12-9.34-8.71-16.85-2.37,7.28-8,14-20.49,17.88l-.56-.71C47.56,37,50.64,30,51.75,22.85H38.06c-.16.71-.39,1.42-.55,2.06C54,27,48.19,40,40.91,35.51a23.36,23.36,0,0,0-4.27-8.23,31.29,31.29,0,0,1-8.71,12.35l10.84,4H56.58l5.14-5.77,9.42,7.2a4.37,4.37,0,0,1-3.09,1.58V72.94c0,.47-3.4,2.3-9.1,2.3H57V70.09H37.9v3c0,.71-3.24,2.45-8.62,2.45h-1.9V40a33.66,33.66,0,0,1-7.91,4.75l-.64-.71c6.25-5.94,9-13.61,10.21-21.21h-5.7l-.63-2.22h6.65c.31-2.76.47-5.46.55-8H23.34l-.63-2.21h7.2V.62L42.34,1.8c-.16,1-.8,1.82-2.7,2.06v5.3l3.25-4.59s3.64,3.17,6.33,5.86h3.09V.54l12.5,1.18c-.16,1-.71,1.82-2.61,2.06v6.65h.71L67.34,4.1s5,4.35,7.91,7.28c-.23.87-1,1.26-2.13,1.26H62.2V15a33.12,33.12,0,0,1-.48,5.61h1.82l4.51-6.56s5.15,4.51,8.15,7.51c-.23.88-1,1.27-2.13,1.27Zm-24.06,23v9.57H57V45.88ZM57,67.88V57.67H37.9V67.88Zm-4.9-47.25c.16-1.89.24-3.79.24-5.69v-2.3H39.57a60,60,0,0,1-1,8h.55l4-5.85s3.72,3.16,6.41,5.85Z"/><path class="cls-1" d="M142.26,29.76l1.16-6.19H94.19c.64,5.29-1.2,9.06-4,10.5s-6.57.33-7.53-3c-.88-3.21,1.12-5.53,3.93-6.74,2.24-1.2,4.81-4.33,4.41-7.61l1-.08a20.92,20.92,0,0,1,1.68,4.73h8.18A7.21,7.21,0,0,1,99.56,20a16.81,16.81,0,0,0-2.72-9l.48-.32-8.26-.24L88.9,9.14c17.64-1.6,40.41-5.61,52.28-9.14l8.73,9.3c-1,.72-2.8.72-5.37-.4-2.56.24-5.37.48-8.26.72l10.35,3.85c-.4.88-1.37,1.44-3.13,1.2a77,77,0,0,1-11.22,6.66h10.9L148.47,16l9.14,8.65c-.64.65-1.44.89-3.13,1l-10.85,5.42Zm-24.9-8.43a6.47,6.47,0,0,1-2.64-1.53,16.76,16.76,0,0,0-2.41-9.14c-4.57.08-9.14.08-13.63,0,13.07,1.45,11.71,9,7.14,10.67Zm11.55,0a72,72,0,0,0,4.41-11.47c-5.29.32-11.07.56-17,.72,10.74,2.41,9,9.3,4.41,10.75Z"/><path class="cls-2" d="M120.46,31.69l-.11.12a4.26,4.26,0,0,1-.28.34l-.92,1.07-1-1.08c-.09-.09-.22-.26-.38-.46-1-1.28-3.46-4.75-7.16-5.26-.58-.09-4.13-.06-4.73,0A11.17,11.17,0,0,0,99.12,30a8.52,8.52,0,0,0-2.53,6.14c.13,3.93,1.64,6.28,4,8.8.77.82,1.62,1.64,2.54,2.52a46,46,0,0,0,4,3.14c.94.7,2,1.42,3,2.16,2.6,1.84,5.33,3.7,7.19,5l1,.65.88.6,1.66-1.15c3.55-2.44,11.86-8.16,14.75-10.77l.32-.29c3.42-3.28,5.68-5.8,5.82-10.63a8.26,8.26,0,0,0-1.9-5.36l-.19-.25c-.14-.18-.28-.36-.44-.53l-.29-.27a11.11,11.11,0,0,0-6.52-3.27,28.49,28.49,0,0,0-4.71,0C123.91,26.87,121.5,30.4,120.46,31.69Z"/><path class="cls-1" d="M153.72,61.16a59.92,59.92,0,0,1-24.5.67c2.92-1.91,5.88-4,9-6.15a3.8,3.8,0,0,0,4.53-.14l-4.81-5.86c-.38.38-18.43,13.59-18.81,13.86C118.85,63.38,99,48.83,99,48.83S91.25,59.34,83.81,63.17l.34.88c14.89-1.16,20-6.74,20-6.74l.06-.06a71.3,71.3,0,0,0,6.8,5A93.79,93.79,0,0,1,82.18,70.4l0,1.79c2.33.47,17.11,2.21,36.23-5.77a72.11,72.11,0,0,0,29.26,7.28c.22-5.51,2.11-9.51,6.12-11.5Z"/></g></g></svg>