<?xml version="1.0" encoding="utf-8"?>
<!-- Generator: Adobe Illustrator 23.0.0, SVG Export Plug-In . SVG Version: 6.00 Build 0)  -->
<svg version="1.1" id="图层_1" xmlns="http://www.w3.org/2000/svg" xmlns:xlink="http://www.w3.org/1999/xlink" x="0px" y="0px"
	 viewBox="0 0 128 128" style="enable-background:new 0 0 128 128;" xml:space="preserve">
<style type="text/css">
	.st0{fill:#FFFFFF;}
</style>
<path class="st0" d="M99.1,66.7c0.1-0.2,0.2-0.2,0.2-0.4c1.2-2.4,0.7-5.4-1.3-7.2L50.8,15.7c-2.6-2.4-6.6-2.3-9.1,0.2
	c-2.3,2.4-2.3,6.3,0.1,8.7c0.1,0.1,0.2,0.1,0.2,0.2l42.4,39l-42.2,39.5c-2.5,2.3-2.7,6.2-0.3,8.6c0.1,0.1,0.2,0.2,0.2,0.2
	c2.5,2.5,6.5,2.6,9.1,0.2L98,68.5c0.1-0.1,0.1-0.2,0.2-0.3c0.1-0.1,0.2-0.1,0.2-0.2C98.7,67.6,98.8,67.1,99.1,66.7z"/>
</svg>
