<?xml version="1.0" encoding="utf-8"?>
<!-- Generator: Adobe Illustrator 23.0.0, SVG Export Plug-In . SVG Version: 6.00 Build 0)  -->
<svg version="1.1" id="图层_1" xmlns="http://www.w3.org/2000/svg" xmlns:xlink="http://www.w3.org/1999/xlink" x="0px" y="0px"
	 viewBox="0 0 300 200" style="enable-background:new 0 0 300 200;" xml:space="preserve">
<style type="text/css">
	.st0{fill:#FFFFFF;}
	.st1{font-family:'FZCSJW--GB1-0';}
	.st2{font-size:30px;}
</style>
<path class="st0" d="M190.4,58.2c1.1-6.2-0.6-10.5-2.4-13.2c-1.9-2.8-6.5-7.4-16.1-7.4c-2.8,0-5.9,0.4-9.2,1.2
	c-0.5-4.7-2.6-7.8-4.5-9.8c-3.1-3.2-7.4-4.9-12.4-4.9c-10.5,0-23.9,7.3-35.8,19.6c-12.2,12.6-19,26-19,37.9c0,24.2,28,38.6,55,38.6
	c9.9,0,19.4-1.7,28-5.1c2.6-1,4-4,3-6.6s-4-4-6.6-3c0,0-0.1,0-0.1,0c-7.4,2.9-15.6,4.4-24.2,4.4c-21.5,0-44.7-10.8-44.7-28.4
	c0-9.2,5.7-20.1,16.1-30.8c9.7-10,20.9-16.5,28.5-16.5c1.5,0,3.6,0.3,5,1.7c2.1,2.2,1.9,6,1.3,8.7c-0.6,2.8,1.2,5.5,4,6
	c1,0.2,2,0.1,2.9-0.3c4.8-1.9,9.2-2.8,12.8-2.8c2.6,0,6,0.5,7.6,2.9c1.3,2,1.3,4.9-0.1,8.8c-0.9,2.7,0.4,5.6,3.1,6.6
	c0,0,0.1,0,0.1,0c7.5,2.5,11.8,7.4,11.8,13.5c0,4.5-2.2,9.4-6.1,13.9c-1.9,2.1-1.7,5.4,0.5,7.2c2.1,1.9,5.4,1.7,7.2-0.5l0,0
	c5.7-6.5,8.7-13.6,8.7-20.7C204.8,70.4,199.5,62.6,190.4,58.2L190.4,58.2z"/>
<path class="st0" d="M146.1,70.5c-3.7,0-7.5,1.3-10.9,3.9l-0.6,0.7c-4.2,5.5-5.1,12.1-2.3,17.7c2.6,5.3,7.9,8.6,13.8,8.6
	c3.7,0,7.5-1.3,10.8-3.9l0.6-0.7c4.2-5.5,5.1-12.1,2.3-17.7C157.3,73.8,152,70.5,146.1,70.5z M152.4,92.2c-5.2,3.7-11.6,2.3-14-2.5
	c-1.5-3.1-1.1-6.8,1.3-10.1c5.2-3.7,11.6-2.3,14,2.5C155.3,85.2,154.8,88.9,152.4,92.2z M194,52.2c0,2.8,2.3,5.1,5.1,5.1
	s5.1-2.3,5.1-5.1c0,0,0,0,0,0c0-11.2-9.2-20.4-20.4-20.4c-2.8,0-5.1,2.3-5.1,5.1s2.3,5.1,5.1,5.1C189.4,42.1,193.9,46.6,194,52.2z"
	/>
<path class="st0" d="M183.8,15.8c-2.8,0-5.1,2.3-5.1,5.1s2.3,5.1,5.1,5.1l0,0c14.9,0,27,12.1,27,26.9c0,2.8,2.3,5.1,5.1,5.1
	s5.1-2.3,5.1-5.1c0,0,0,0,0,0C221.1,32.5,204.3,15.8,183.8,15.8z"/>
<text transform="matrix(1 0 0 1 65.0668 184.2252)" class="st0 st1 st2">潜爱官方微博</text>
</svg>
