<?xml version="1.0" encoding="utf-8"?>
<!-- Generator: Adobe Illustrator 23.0.0, SVG Export Plug-In . SVG Version: 6.00 Build 0)  -->
<svg version="1.1" id="图层_1" xmlns="http://www.w3.org/2000/svg" xmlns:xlink="http://www.w3.org/1999/xlink" x="0px" y="0px"
	 viewBox="0 0 300 200" style="enable-background:new 0 0 300 200;" xml:space="preserve">
<style type="text/css">
	.st0{fill:#FFFFFF;}
	.st1{font-family:'FZCSJW--GB1-0';}
	.st2{font-size:30px;}
</style>
<path class="st0" d="M194.2,55.2c15.2,5.3,26,19.8,26,36.8c0,6.5-1.6,12.8-4.6,18.4c-0.3,0.5-0.8,1.4-1.5,2.6l2.2,8.2
	c1,3.6-2.4,7-6,6l-8.2-2.2c-0.3,0.2-0.6,0.4-0.9,0.6c-6,3.6-12.9,5.5-20,5.5c-11.9,0-22.5-5.3-29.7-13.7c-2.9,0.5-5.7,0.7-8.6,0.7
	c-9.6,0-18.9-2.6-27-7.4c-0.3-0.2-1-0.6-2.1-1.2l-12.3,3.3c-3.6,1-7-2.4-6-6l3.3-12c-1.2-2-2-3.4-2.4-4.2
	c-4.1-7.5-6.2-15.9-6.2-24.6c0-28.7,23.6-52,52.7-52c24.4,0,45.4,16.5,51.2,39.5C194.2,54.1,194.3,54.6,194.2,55.2z M183.9,53.1
	c-5.6-17.2-22-29.3-40.9-29.3c-23.7,0-43,18.9-43,42.2c0,7.1,1.8,13.8,5.1,19.9c0.4,0.8,1.6,2.7,3.3,5.6c0.7,1.2,0.9,2.5,0.5,3.8
	l-1.6,5.8l6-1.6c1.3-0.3,2.6-0.2,3.7,0.5c2.2,1.3,3.5,2,3.9,2.3c6.6,3.9,14.2,6,22.1,6c0.9,0,1.9,0,2.8-0.1
	c-2.3-4.9-3.5-10.4-3.5-16.2c0-21.5,17.5-39,39-39C182.1,53,183,53,183.9,53.1z M204.2,113.6c-0.4-1.3-0.2-2.6,0.5-3.8
	c1.2-2.1,2-3.4,2.3-4c2.3-4.2,3.4-8.9,3.4-13.8c0-16.2-13.1-29.2-29.3-29.2c-16-0.1-29.1,13-29.1,29.2s13.1,29.3,29.3,29.3
	c5.4,0,10.5-1.4,15-4.1c0.3-0.2,1.3-0.7,2.8-1.6c1.1-0.7,2.5-0.8,3.7-0.5l1.9,0.5L204.2,113.6L204.2,113.6z M127.6,57.9
	c-3.6,0-6.5-2.9-6.5-6.5s2.9-6.5,6.5-6.5s6.5,2.9,6.5,6.5S131.2,57.9,127.6,57.9L127.6,57.9z M156.9,57.9c-3.6,0-6.5-2.9-6.5-6.5
	s2.9-6.5,6.5-6.5s6.5,2.9,6.5,6.5S160.5,57.9,156.9,57.9L156.9,57.9z M169.9,88.7c-2.7,0-4.9-2.2-4.9-4.9c0-2.7,2.2-4.9,4.9-4.9
	s4.9,2.2,4.9,4.9C174.8,86.6,172.6,88.7,169.9,88.7z M192.6,88.7c-2.7,0-4.9-2.2-4.9-4.9c0-2.7,2.2-4.9,4.9-4.9s4.9,2.2,4.9,4.9
	C197.5,86.6,195.3,88.7,192.6,88.7z"/>
<text transform="matrix(1 0 0 1 34 178.5)" class="st0 st1 st2">潜爱微信公众平台</text>
</svg>
